<svg xmlns="http://www.w3.org/2000/svg" viewBox="2 3 20 20" fill="none" stroke-width="1.5" stroke-linecap="round" stroke-linejoin="round">
  <path d="M4 9L6.5 4L9 8" stroke="#1a1a18"/>
  <path d="M15 8L17.5 4L20 9" stroke="#1a1a18"/>
  <path d="M4 9C3 11 3 13 4 15C5 17 7 18.5 12 18.5C17 18.5 19 17 20 15C21 13 21 11 20 9" stroke="#1a1a18"/>
  <circle cx="9" cy="12" r="2.2" stroke="#1a1a18"/>
  <circle cx="15" cy="12" r="2.2" stroke="#1a1a18"/>
  <circle cx="9" cy="12" r="0.8" fill="#1a1a18"/>
  <circle cx="15" cy="12" r="0.8" fill="#1a1a18"/>
  <path d="M6.5 9.5L9 10.8" stroke="#1a1a18"/>
  <path d="M17.5 9.5L15 10.8" stroke="#1a1a18"/>
  <path d="M11 15L12 16.5L13 15" stroke="#1a1a18"/>
  <path d="M7 18.5C7 21 9 22 12 22C15 22 17 21 17 18.5" stroke="#1a1a18"/>
  <style>
    @media (prefers-color-scheme: dark) {
      circle[fill] { fill: #fff; }
      [stroke="#1a1a18"] { stroke: #fff; }
    }
  </style>
</svg>
